<svg viewBox="0 0 1375.72 206.339" fill="none" xmlns="http://www.w3.org/2000/svg">
<g id="Vector">
<path fill-rule="evenodd" clip-rule="evenodd" d="M1074.03 0C1153.7 0 1172.61 22.7289 1172.61 103.169C1172.61 183.609 1153.71 206.339 1074.03 206.339C994.365 206.339 975.468 183.609 975.468 103.169C975.468 22.729 994.365 8.1336e-05 1074.03 0ZM1074.03 38.0488C1027.05 38.0489 1020.92 44.4342 1020.92 103.169C1020.92 161.904 1026.54 168.29 1074.03 168.29C1121.53 168.29 1126.64 161.904 1126.64 103.169C1126.64 44.434 1121.02 38.0488 1074.03 38.0488Z" fill="var(--fill-0, black)"/>
<path d="M675.577 0.0654297C737.092 0.0655093 765.166 16.1454 765.166 70.752V77.5605H721.987C721.464 69.5567 721.612 57.2708 716.35 50.0156C710.272 41.2302 697.998 38.0977 675.577 38.0977C630.664 38.0977 624.543 44.4777 624.543 103.169C624.543 161.86 630.664 168.24 675.577 168.24C705.181 168.24 716.89 163.258 720.457 146.122C721.652 141.289 722.169 127.825 722.246 125.98H765.166V133.032C765.166 186.615 743.213 206.271 675.577 206.271C598.005 206.271 579.106 183.554 579.106 103.169C579.106 22.7837 598.005 0.0654297 675.577 0.0654297Z" fill="var(--fill-0, black)"/>
<path d="M350.854 42.3203H244.762V83.7383H340.983V119.932H244.762V164.024H351.344V202.893H199.728V3.44629H350.854V42.3203Z" fill="var(--fill-0, black)"/>
<path fill-rule="evenodd" clip-rule="evenodd" d="M135.19 3.45703C158.877 3.45717 168.417 17.9624 168.417 37.7627V96.0576C168.417 115.302 159.146 126.817 135.999 126.817L124.825 126.845C120.124 126.856 117.531 132.306 120.487 135.961L174.643 202.887H120.839L62.6543 130.517C60.7772 128.177 57.9365 126.823 54.9365 126.823C49.4706 126.823 45.0391 131.255 45.0391 136.721V202.887H0V3.45703H135.19ZM45.0283 90.7559H123.344C126.845 90.7559 127.918 89.6387 127.918 86.0166V47.8027C127.918 43.9001 126.839 42.502 123.074 42.502H45.0283V90.7559Z" fill="var(--fill-0, black)"/>
<path fill-rule="evenodd" clip-rule="evenodd" d="M573.492 202.887H525.815L511.911 160.445H426.137L412.231 202.887H364.561L429.918 3.45117H508.135L573.492 202.887ZM438.373 123.118H499.68L472.31 39.5898H465.743L438.373 123.118Z" fill="var(--fill-0, black)"/>
<path d="M959.394 42.3701H894.328V202.887H849.3V42.3701H784.245V3.45117H959.394V42.3701Z" fill="var(--fill-0, black)"/>
<path fill-rule="evenodd" clip-rule="evenodd" d="M1336.27 3.45703C1359.96 3.45709 1369.5 17.9623 1369.5 37.7627V96.0576C1369.5 115.302 1360.23 126.817 1337.08 126.817L1325.9 126.845C1321.2 126.856 1318.61 132.306 1321.56 135.961L1375.72 202.887H1321.92L1263.73 130.517C1261.85 128.183 1259.01 126.823 1256.01 126.823C1250.54 126.823 1246.11 131.255 1246.11 136.721V202.887H1201.08V3.45703H1336.27ZM1246.11 90.7559H1324.43C1327.93 90.7559 1329.01 89.6387 1329.01 86.0166V47.8027C1329.01 43.9001 1327.93 42.502 1324.16 42.502H1246.11V90.7559Z" fill="var(--fill-0, black)"/>
</g>
</svg>
