<svg viewBox="0 0 236 167" fill="none" xmlns="http://www.w3.org/2000/svg">
<path id="Vector" fill-rule="evenodd" clip-rule="evenodd" d="M206.095 0C226.816 8.93696e-06 236 12.1455 236 28.7287V77.5436C236 93.6597 227.052 105.805 206.801 105.805L206.316 105.807C201.046 105.826 197.927 111.667 200.873 116.002L235.529 167H193.51L153.406 109.84C151.633 107.313 148.724 105.806 145.62 105.805C140.38 105.805 136.133 110.018 136.133 115.215V167H99.867V115.215C99.867 110.018 95.6196 105.805 90.3804 105.805C87.2757 105.806 84.3674 107.313 82.5939 109.84L42.4899 167H0.47133L35.1272 116.002C38.0728 111.667 34.9544 105.826 29.6842 105.807L29.199 105.805C8.94824 105.805 0 93.6597 0 77.5436V28.7287C0 12.1455 9.18356 8.93696e-06 29.9053 0H206.095ZM40.5014 32.6996C37.205 32.6997 36.2631 33.8675 36.2631 37.1373V69.1357C36.2631 72.1719 37.2054 73.1059 40.2665 73.1059H195.734C198.795 73.1059 199.737 72.1719 199.737 69.1357V37.1373C199.737 33.8675 198.795 32.6997 195.499 32.6996H40.5014Z" fill="var(--fill-0, black)"/>
</svg>
